<svg width="576" height="126" viewBox="0 0 576 126" fill="none" xmlns="http://www.w3.org/2000/svg">
<path d="M123.381 58.7161V67.96C123.381 85.0784 117.903 98.9443 106.947 109.558C95.9914 120.171 81.8402 125.478 64.4935 125.478C46.0057 125.478 30.6562 119.486 18.4451 107.504C6.34806 95.4065 0.299561 80.6847 0.299561 63.3381C0.299561 45.8773 6.291 31.0984 18.2739 19.0014C30.3709 6.90442 45.3209 0.855919 63.1241 0.855919C74.3081 0.855919 84.5221 3.42368 93.766 8.5592C103.01 13.5806 110.2 20.3138 115.335 28.7589L95.1355 40.3994C92.2824 35.4921 87.9457 31.4978 82.1255 28.4165C76.4193 25.3352 70.0285 23.7946 62.9529 23.7946C51.5406 23.7946 42.1255 27.5606 34.7075 35.0927C27.4037 42.5107 23.7518 51.9258 23.7518 63.3381C23.7518 74.6362 27.4607 83.9942 34.8787 91.4122C42.4108 98.7161 52.3395 102.368 64.6647 102.368C73.7945 102.368 81.3266 100.371 87.261 96.3765C93.3095 92.2681 97.4179 86.6761 99.5862 79.6005H63.2952V58.7161H123.381Z" fill="#111111"/>
<path d="M150.112 27.2182C146.46 27.2182 143.265 25.9058 140.526 23.281C137.901 20.5421 136.589 17.3466 136.589 13.6947C136.589 10.0428 137.901 6.84736 140.526 4.10841C143.265 1.36947 146.46 0 150.112 0C153.878 0 157.074 1.36947 159.699 4.10841C162.437 6.84736 163.807 10.0428 163.807 13.6947C163.807 17.3466 162.437 20.5421 159.699 23.281C157.074 25.9058 153.878 27.2182 150.112 27.2182ZM139.156 123.081V37.4893H161.239V123.081H139.156Z" fill="#111111"/>
<path d="M203.534 52.2111C205.588 46.7332 208.954 42.6248 213.634 39.8859C218.427 37.1469 223.733 35.7774 229.554 35.7774V60.4279C222.82 59.6291 216.772 60.9985 211.408 64.5363C206.158 68.0741 203.534 73.9514 203.534 82.1683V123.081H181.451V37.4893H203.534V52.2111Z" fill="#111111"/>
<path d="M337.133 35.0927C346.948 35.0927 354.765 38.2881 360.586 44.679C366.52 51.0699 369.487 59.6291 369.487 70.3566V123.081H347.404V71.8973C347.404 66.7617 346.149 62.7674 343.638 59.9144C341.128 57.0613 337.59 55.6348 333.025 55.6348C328.004 55.6348 324.066 57.2896 321.213 60.5991C318.474 63.9087 317.105 68.7018 317.105 74.9786V123.081H295.022V71.8973C295.022 66.7617 293.767 62.7674 291.256 59.9144C288.745 57.0613 285.208 55.6348 280.643 55.6348C275.735 55.6348 271.798 57.2896 268.831 60.5991C265.978 63.9087 264.551 68.7018 264.551 74.9786V123.081H242.469V37.4893H264.551V46.562C269.687 38.9158 277.618 35.0927 288.346 35.0927C298.845 35.0927 306.606 39.2011 311.627 47.4179C317.333 39.2011 325.835 35.0927 337.133 35.0927Z" fill="#111111"/>
<path d="M453.292 37.4893H475.375V123.081H453.292V112.981C446.673 121.312 437.372 125.478 425.389 125.478C413.977 125.478 404.163 121.141 395.946 112.468C387.843 103.68 383.792 92.9529 383.792 80.2853C383.792 67.6177 387.843 56.9472 395.946 48.2739C404.163 39.4864 413.977 35.0927 425.389 35.0927C437.372 35.0927 446.673 39.2582 453.292 47.5891V37.4893ZM412.551 97.746C417.001 102.197 422.65 104.422 429.498 104.422C436.345 104.422 441.994 102.197 446.445 97.746C451.01 93.1811 453.292 87.3609 453.292 80.2853C453.292 73.2097 451.01 67.4465 446.445 62.9957C441.994 58.4308 436.345 56.1483 429.498 56.1483C422.65 56.1483 417.001 58.4308 412.551 62.9957C408.1 67.4465 405.874 73.2097 405.874 80.2853C405.874 87.3609 408.1 93.1811 412.551 97.746Z" fill="#111111"/>
<path d="M542.989 35.0927C552.347 35.0927 560.05 38.2311 566.099 44.5078C572.261 50.7846 575.343 59.4579 575.343 70.5278V123.081H553.26V73.2667C553.26 67.5606 551.719 63.2239 548.638 60.2567C545.556 57.1754 541.448 55.6348 536.313 55.6348C530.606 55.6348 526.042 57.4037 522.618 60.9415C519.194 64.4793 517.482 69.786 517.482 76.8616V123.081H495.4V37.4893H517.482V47.0756C522.846 39.087 531.348 35.0927 542.989 35.0927Z" fill="#111111"/>
</svg>
