<svg width="188" height="125" viewBox="0 0 188 125" fill="none" xmlns="http://www.w3.org/2000/svg">
<path d="M72.2712 0.70636C106.55 8.45852 124.988 31.8879 124.857 66.7849C124.784 85.9322 124.844 105.08 124.844 124.562C116.612 124.562 108.846 124.562 100.262 124.562C100.262 119.884 100.262 115.243 100.262 110.602C100.26 94.3011 100.428 77.9977 100.213 61.6993C99.9685 43.1597 85.7203 27.1601 67.9852 25.0727C48.1777 22.7415 30.8654 34.0826 25.9643 52.6C21.0561 71.1442 30.1895 89.8172 47.8508 97.2524C49.6778 98.0215 51.6184 98.5207 54.1577 99.3606C54.1577 86.8404 54.1577 74.9923 54.1577 62.7866C61.5555 62.7866 68.453 62.7866 75.6617 62.7866C75.6617 83.2438 75.6617 103.616 75.6613 123.99C38.4841 130.087 9.11069 107.887 1.6182 76.1967C-6.20313 43.1153 15.1248 8.93015 48.3941 1.82598C55.9145 0.220095 63.9358 0.961228 72.2712 0.70636Z" fill="#3063E6"/>
<path d="M187.249 114.231C187.248 117.891 187.248 120.96 187.248 124.476C179.085 124.476 171.188 124.476 162.602 124.476C162.602 120.266 162.592 116.204 162.604 112.143C162.651 95.2278 162.731 78.3129 162.75 61.398C162.779 35.3577 145.236 11.5142 119.881 3.07011C118.368 2.56595 116.852 2.0681 114.884 1.41755C145.092 -5.94805 178.48 16.2458 185.678 48.1845C186.755 52.9655 187.174 57.9793 187.224 62.8922C187.393 79.806 187.264 96.7228 187.249 114.231Z" fill="#3063E6"/>
</svg>
