<svg width="63" height="64" viewBox="0 0 63 64" fill="none" xmlns="http://www.w3.org/2000/svg">
<rect y="0.870239" width="62.2595" height="62.2595" rx="5.15394" fill="#4786FF"/>
<path d="M25.7822 16.9549C34.1945 18.8569 38.7195 24.6052 38.6872 33.167C38.6695 37.8648 38.6841 42.5626 38.6841 47.3424C36.6638 47.3424 34.7582 47.3424 32.6514 47.3424C32.6514 46.1948 32.6514 45.0561 32.6513 43.9175C32.6511 39.918 32.6922 35.918 32.6394 31.9193C32.5794 27.3707 29.0828 23.4452 24.7303 22.9331C19.8694 22.3611 15.6207 25.1436 14.4179 29.6868C13.2134 34.2366 15.4549 38.8179 19.7891 40.6421C20.2375 40.8308 20.7138 40.9533 21.3369 41.1594C21.3369 38.0876 21.3369 35.1807 21.3369 32.1861C23.1524 32.1861 24.8452 32.1861 26.6143 32.1861C26.6143 37.2052 26.6143 42.2035 26.6141 47.202C17.4904 48.698 10.2819 43.2513 8.44312 35.4762C6.52368 27.3598 11.7578 18.9726 19.9225 17.2296C21.7681 16.8356 23.7366 17.0174 25.7822 16.9549Z" fill="white"/>
<path d="M53.9992 44.8073C53.9992 45.7055 53.9992 46.4584 53.9992 47.3211C51.9957 47.3211 50.0579 47.3211 47.9507 47.3211C47.9507 46.2882 47.9483 45.2916 47.9511 44.2951C47.9627 40.1451 47.9823 35.9951 47.9869 31.8451C47.9942 25.4562 43.6889 19.6063 37.4666 17.5345C37.0951 17.4108 36.723 17.2887 36.2401 17.1291C43.6536 15.322 51.8473 20.7671 53.6137 28.6032C53.8781 29.7762 53.981 31.0063 53.9931 32.2117C54.0348 36.3614 54.003 40.5119 53.9992 44.8073Z" fill="white"/>
</svg>
